<?xml version="1.0" encoding="UTF-8"?>
<svg xmlns="http://www.w3.org/2000/svg" viewBox="0 0 61 39" width="61" height="39">
  <!-- Corner Guides -->
  <path d="M13 1H5a4 4 0 0 0-4 4v8" stroke="#fff" stroke-width="2" fill="none" class="corner-top-left"/>
  <path d="M13 1H5a4 4 0 0 0-4 4v8" stroke="#fff" stroke-width="2" fill="none" class="corner-top-right" transform="translate(48, 0) scale(-1, 1)"/>
  <path d="M13 1H5a4 4 0 0 0-4 4v8" stroke="#fff" stroke-width="2" fill="none" class="corner-bottom-left" transform="translate(0, 28) scale(1, -1)"/>
  <path d="M13 1H5a4 4 0 0 0-4 4v8" stroke="#fff" stroke-width="2" fill="none" class="corner-bottom-right" transform="translate(48, 28) scale(-1, -1)"/>
  
  <!-- ID Card Front Outline -->
  <path d="M22.9 31.7c-1 1.1-2.7 1.5-4.1.9l-.3-.1c-.2-.1-.3-.1-.5-.2-1.2-.2-2.3.6-2.5 1.8l-.5 3.1c-.6-3.5-.3-6.2 1-8 1.9-2.7 6.5-3.7 7.8-.7 2 .7 3 2 3.1 3.9.6 1.2.8 2.8.3 4.8l-.5-3.3c-.2-1.5-1.4-2.7-3-3h-.1zM12.5 45.5c5.7-1.5 11.6-1.5 17.3 0v3.8H12.5z" transform="translate(-7 -17)" fill="none"/>
  
  <!-- Guide Lines -->
  <path d="M39 26.3h16.7M39 30h7.2M39 33.8h10.9m2.6 15.4h2.6m-10.9 0h5.6m1.2-3h4.1m-7.9 0h1.1m-6.3 0h2.6m7.9 3h2.6zm-8.3 0h5.6zm6.8-3h4.1zm-3.8 0h1.1zm-5.2 0h2.6zm-24-2.4V45l.1.1c1.8 1.5 4.4 1.5 6.1-.1h0v-1.1m-6.2.7c-1.4 0-2.7.2-4.1.6l-1.5.4m11.9-1c1.4 0 2.7.2 4.1.6l1.5.4m-2.6-7c.6-.1.9-.6.9-1.1h0c0-.5-.4-1-.9-1.1h0M15 35.8v2.7c0 2 1 3.9 2.7 5l.9.6c1.5 1 3.4 1 4.9 0l.9-.6c1.7-1.1 2.7-3 2.7-5v-2.7m-4.2-4.1.8-.8h.1c1.5.2 2.7 1.5 3 3l.5 3.3q.6-3-.3-4.8c-.1-1.9-1.1-3.2-3.1-3.9-1.2-3-5.8-2-7.8.7-1.3 1.8-1.6 4.5-1 8l.5-3.1c.2-1.2 1.3-2 2.5-1.8.2 0 .4.1.5.2l.3.1c1.4.6 3 .3 4-.9M15 38.6c-.6-.1-.9-.6-.9-1.1h0c0-.5.4-1 .9-1.1h0m0 1.1h-.2m12.7 0h-.2" 
    transform="translate(-7 -17)" 
    fill="none" 
    stroke="#fff" 
    stroke-width="0.7414" 
    stroke-linecap="round" 
    stroke-linejoin="round" 
    stroke-opacity="0.7"/>
</svg>