<?xml version="1.0" encoding="UTF-8"?>
<svg xmlns="http://www.w3.org/2000/svg" viewBox="0 0 61 39" width="61" height="39">
  <!-- Corner Guides -->
  <path d="M13 1H5a4 4 0 0 0-4 4v8" stroke="#fff" stroke-width="2" fill="none" class="corner-top-left"/>
  <path d="M13 1H5a4 4 0 0 0-4 4v8" stroke="#fff" stroke-width="2" fill="none" class="corner-top-right" transform="translate(48, 0) scale(-1, 1)"/>
  <path d="M13 1H5a4 4 0 0 0-4 4v8" stroke="#fff" stroke-width="2" fill="none" class="corner-bottom-left" transform="translate(0, 28) scale(1, -1)"/>
  <path d="M13 1H5a4 4 0 0 0-4 4v8" stroke="#fff" stroke-width="2" fill="none" class="corner-bottom-right" transform="translate(48, 28) scale(-1, -1)"/>
  
  <!-- ID Card Outline -->
  <path d="M5.4 15.17h2.35V24H5.4ZM8.05 24h.29v-8.83h-.29Zm.59 0h.29v-8.83h-.29Zm.59 0h.29v-8.83h-.29Zm1.18 0h1.17v-.36h.3v-.37h-.3v-.73h-.29v.37H11v.36h-.3v-.73h.59v-.37h.29v-1.51h-.29v-1.1h.88v-.36h-.29v-.37h-.3v.37h-.29v-.37H11v-.36h.3v.36h.29v-.36h.59v-.74h.59v.37h.3v-.73h.29v.36h1.18v-.36h-.88V17h-.89v-.36h-.29v-.37h-.3v.37h-.29v-.73h-.3v.36h-.29v-.36h.29v-.37h-.29v-.37h-.88Zm.58-8v.36h-.29V16Zm0 .73V17h-.29v-.36Zm.59 0V17h-.29v-.36Zm.3.36v1.1h-.3v-.37h-.29v-.36h.29V17Zm.59 0v.37h-.3V17Zm-1.47.28v.36h-.3v-.36Zm0 2.19v.37h-.3v-.37Zm0 .74v.36h-.3v-.36Zm.59-4.76h.3v-.37h-.3Zm.59 0h.3v-.37h-.3Zm1.18 0h.3v.37h-.59v-.37h-.59v.37h.29v.36h.3v.37h.29v-.37h.3V17h.29v-.36h1.18v-.37h-1.19v-.36h.29v-.74h-.88ZM15.41 24h.3v-1.14H16v-.37h-.29v-.37h.59v-.36h.29v.36h-.29v.37h.59v-1.1h-.3V21h-.88v-.7h.59v-.74h-.59v-.36h.59v-.73h.29v-.37h-.29v-.73h-.59V17h.59v-.73H16v.37h-.29v-1.47h-.3Zm.59-2.61v.37h-.29v-.37Zm0-5.48h.3v.36h.59v-.73h-.59v-.37H16ZM17.18 17h-.59v.73h.3v.74h.29v.73h.59v-.37h.29v-.36h-.29v-.37h-.59v-.73h.29v.36h.3V17h-.3v-.36h.59v-.37h-.29v-.73h-.3v-.37h-.29Zm1.47-1.46h-.29v.37H19v.36h-.59v.37h-.3v1.09h.3v.37h.29v1.83h-.59v.37h.59v.36h-.59V21h.59v.73h.3v.36h.59v.37h.29v-.73h-.29v-.37H19v-1.8h.88v-.36H19v-.73h.88v.36h.29v-.73h-.29v-.37h-.29v.37H19v-.37h-.3v-.36h-.29V17h.29v-.36h.59v-.37h.88v-.73H19v-.37h-.3ZM20.42 24H21v-.36h-.3v-.37h.3v.37h.59v-.37h-.3v-.36H21v-1.1h-.3v-.37h.89v.37h-.3v.36h.3v.74h.29v.36h.3v-.36h.29v-.37h.3v.37h-.3v.73h-.59V24h1.18v-.36h.29V24h.3v-.36H24v-.37h.3v.37h.29v-.37h.59v-.36h-.29v-.37h-.59v-.37h.29v-.36h-.29v-.37h-.59v.37H24v.36h-.29v.37H24v.37h-.29v.36h-.3v-.36h-.29v-.37h.29v-1.1h.3V21h-.59v.73h-.29v.36h-.59v.37h-.3v-.73h.59v-.37h.3V21h.29v-.37h-.59V21h-.29v.36h-.3V21h-.34v-.37h.88v-.33H21.3v.36H21V21h-.3v-.7h.3v-.37h-.3v-.37h.3v-.36h-.3v-.73h.3v-.37h-.3v-.37h.3V17h.29v-.36H21v-.73h.29v-.74h-.88Zm1.18-8h-.3v.36h.3v1.1h.29v.36h.59v-.36h.59V17h-.29v-.36h-.3v-.37h-.29v-.36h-.3v-.37h.3v.37h.59v-.37h-.3v-.37h-.88Zm.59.73V17h-.3v-.36Zm.59-1.1h.58v-.37h-.58Zm1.17 0h.59v-.37H24ZM25.43 24h.29v-.36h.88v-.73h.3v.36h.29v-.36h.3v-.37h1.18v-.73h.59v.36h.58v.37h-.29v.37h-.29v-.37H29v.73h.3v.37h-.59v-.37h-.3v-.36h-.29v.73h.29V24h1.18v-.36h.29v-.37h.3v-1.51h-.3V21h.3v-.7h-.3v-.37h-.29v.37H29v-.37h.59v-.73H29v.36h-.29v.37h-.59v-.37h-.3v.74h.3v.7h-.89v.36h.3v.37h.29v.36h-.59v.37h-.63v-.37h.3v-.36h-.3V21h-.29v-.37H26v-.73h.29v-.37h.88v-.33h-.27v-.37h-.59v.37H26v-.37h-.3v-1.46h.88v.36H26v.37h.88v.37h.29v-.74h-.27v-.36h.29v-.73h.3v-.37h-.3v-.36h-.29v-.74h-1.47Zm.88-8.41v.37h-.59v-.37Zm0 .73v.37H26v-.37Zm-.29.37V17h-.3v-.36Zm2.65 3.66v.36h.88V21h-.29v.36H29V21h-.59v-.7ZM26 21v.36h.29v.73H26v-.36h-.3V21Zm2.35.36v.37h-.29v-.37Zm-2.35.76v.37h-.3v-.37Zm.29.37v.37H26v-.37Zm.88-6.95h.3v.73h.29v-1.1h-.59Zm.89.73h-.3v.37h.59V17h-.29v.37h.29v.36h.3v-1.82h.88v.73H29V17h.59v.37h.29V17h.3v-.36h-.3v-1.47h-1.21v.37h-.3v-.37h-.29ZM30.43 24H31v-1.88h-.29v-.36H31v-.37h.3v.73h.29v-.36h.3v.36h.29v.37h-.29v-.37h-.3v.74h.3v.36h-.3v.37h-.29V24h.88v-.73h.3v-.73h.58v-.37h-.56v-.36h-.3v-.37h-.59V21h-.29v-.37h.29v-.33h.3v.36h.29V21h.3v.73h.29v-.37h.29v-.73h.3V21H34v-.37h-.3v-.33h-.59v-.37h-.29v.37h-.32v-.37h.29v-.37h-.29v-.36h.58v.73h.3v-.37H34v.37h-.3v.37h.3v.36h.29v-.36h.3v-.37h.29v-.37h-.29v-.36h.29v.36h.3v-.73h-.59v-.73H34v-.37h-.59v.37h.29v.37h.3v.36h.29v.37h-.88v-.37h-.3v-.73h-.29v.37h-.32v.36h-.3v-.36h-.29v-.37h-.3v-.37h-.29v-.36h.29v.36h.59V17h-.29v-.36h-.3V17h-.88v-.36H31v-.73h.59v-.37h-.29v-.37H31v.37h-.29v-.37h-.3Zm.89-5.85v.37h.29v.36h-.29v.37H31v-.73h-.29v-.42Zm.59.73v.73h.29v.37h-.59v-1.1ZM31 19.93v.37h-.29v-.37Zm1.48-4h-.3v-.37h-.29v.73h.29v.37h.3v-.37h.58v-.36h-.29v-.37h.29v-.37h-.56Zm2.06-.37h.59v-.37h-.59Zm.9 8.44h.29v-.36H36v-.37h-.3v-1.1h.3v-.36h-.3v-.37h.89V21h-.89v-.7h1.18v-.37h-.29v-.37h-.89v-.36h.89v-.37H36v-.36h-.3v-.37h.59v-.37H36v-.36h-.3V17h.3v-.73h.88v.37h.3v-.73h-.3v-.37h.3v-.37h-.59v.74H36v-.37h.29v-.37h-.88Zm2.36-8.41h-.3v1.1h-.29V17h.88v.37h.3V17h.29v-1.09h-.29v-.37h-.3v-.37h-.29Zm.29.37v.73h-.29v-.73Zm.59 0H39v-.37h.3v-.37h-.59Zm1.77 8h.29v-.36h.59v.4h.59v-.73h-1.18v-.73H41v-.73h-.3v-.37h1.18v-.73h-.29V21H41v-.37h-.3v-.33h.59v-.37h-.59v-.37h.3v-.36h.59v.73h.29v-.37h.29v-.36h-.29v-.37h.29v-.73h-.58v-.37h-.3v-.36h-.59V17h.3v-.36h-.3v-.37h.59v.37h.3v-1.1h-.3v.37H41v-.74h-.59ZM41 18.1v.37h-.3v-.37Zm.59.37v.36h-.3v-.36Zm.58-2.56h.59v.36H44v-.36h-.29v-.37h-.3v-.37h-.31v.37h-.3v-.37h-.59Zm1.83-.37h.3v-.37H44ZM45.45 24h.89v-.36h.29V24h.59v-.36h-.29v-1.1h-.3v.37h-.29v.36H46v-.73h-.29v-.37H46v-.73h-.29V21H46v-.37h-.29v-.33h.59v.36h.29v-.36h.3v-.37h-.3v-.37h-.29v.37H46v-.37h.3v-.73H46v-.36h.3v.36h.29v-.73h.3v-.37h-.59v-.36H46v.36h-.29v-.36H46V17h.3v-.73h.29V17h.3v-.73h.29v-.73h-.29v-.37h-1.44Zm1.77-8.41h.3v-.37h-.3Zm.59 0h.29v-.37h-.29Zm.88 0h.59v.37h.3v.36h.29v-.36h.3v-.74h-1.48ZM50.46 24h2.06v-8.83h-2.06Zm2.36 0h.29v-8.83h-.29ZM54 24h.29v-8.83H54Zm.58 0h.3v-8.83h-.3Zm.89 0h.29v-8.83h-.29Z" fill="#fff" opacity="0.7"/>
  
  <!-- Guide Lines -->
  <path d="M37.27 31.15h18.41M5.32 7.85h10M18.16 7.85h5.57" fill="none" stroke="#fff" stroke-miterlimit="10" stroke-width="0.7414" stroke-opacity="0.7" stroke-linecap="round" stroke-linejoin="round"/>
</svg>