<svg xmlns="http://www.w3.org/2000/svg" xml:space="preserve" aria-hidden="true" viewBox="0 0 96 66"><path d="M26.5 47.4v1.7l.1.1c2.2 2 5.5 1.9 7.7-.1h0v-1.5m-7.8.9h0c-1.7 0-3.4.3-5.1.8l-1.9.6m14.8-1.4h0c1.7 0 3.4.3 5.1.8l1.9.6M38 40.6h0c.7-.2 1.2-.8 1.2-1.5h0c0-.7-.5-1.3-1.2-1.5h0M22.7 37v3.7c0 2.6 1.3 5 3.4 6.4l.9.6c2 1.3 4.6 1.3 6.6 0l.9-.6c2.1-1.4 3.4-3.8 3.4-6.4V37m-5.2-5.5.8-1h0c2 .3 3.5 1.9 3.8 3.9l.6 4.4c.5-2.7.4-4.8-.4-6.3q-.15-3.75-3.9-5.1c-1.5-4-7.3-2.7-9.7.9-1.6 2.4-2 5.9-1.3 10.5l.7-4.2c.2-1.5 1.6-2.5 3.1-2.2.2 0 .5.1.7.2l.1.1c2 .8 4.2.3 5.5-1.2zm-10 9.1h0c-.7-.2-1.2-.8-1.2-1.5h0c0-.7.5-1.3 1.2-1.5h0m0 1.5h-.3m15.9 0H38M20.6 66.2l-1.1 1.1 1.1 1.1m2.5-2.2-1.1 1 1.1 1.1m2.5-2.1-1.1 1.1 1.1 1.1m2.5-2.2-1.1 1 1.1 1.1m2.5-2.1-1.1 1.1 1.1 1.1m2.5-2.2L32 67.3l1.1 1.1m2.5-2.2-1.1 1.1 1.1 1.1m2.5-2.2L37 67.3l1.1 1.1m2.5-2.2-1.1 1.1 1.1 1.1m2.5-2.2L42 67.3l1.1 1.1m2.6-2.2-1.1 1.1 1.1 1.1m2.5-2.2-1.1 1.1 1.1 1.1m2.5-2.2-1.1 1.1 1.1 1.1m2.5-2.2-1.1 1.1 1.1 1.1m2.5-2.2-1.1 1.1 1.1 1.1m2.6-2.2-1.1 1.1 1.1 1.1m2.5-2.2-1.1 1.1 1.1 1.1m2.5-2.2-1.1 1.1 1.1 1.1m2.5-2.2-1.1 1.1 1.1 1.1m2.6-2.2-1.1 1.1 1.1 1.1m-50.3-6.7-1.1 1.1 1.1 1.1m2.5-2.2-1.1 1 1.1 1.1m2.5-2.1-1.1 1.1 1.1 1.1m2.5-2.2-1.1 1 1.1 1.1m2.5-2.1-1.1 1.1 1.1 1.1m2.5-2.2L32 62.8l1.1 1.1m2.5-2.2-1.1 1.1 1.1 1.1m2.5-2.2L37 62.8l1.1 1.1m2.5-2.2-1.1 1.1 1.1 1.1m2.5-2.2L42 62.8l1.1 1.1m2.6-2.2-1.1 1.1 1.1 1.1m2.5-2.2-1.1 1.1 1.1 1.1m2.5-2.2-1.1 1.1 1.1 1.1m2.5-2.2-1.1 1.1 1.1 1.1m2.5-2.2-1.1 1.1 1.1 1.1m2.6-2.2-1.1 1.1 1.1 1.1m2.5-2.2-1.1 1.1 1.1 1.1m2.5-2.2-1.1 1.1 1.1 1.1m2.5-2.2-1.1 1.1 1.1 1.1m2.6-2.2-1.1 1.1 1.1 1.1m2.5-2.2-1.1 1.1 1.1 1.1m2.5-2.2-1.1 1.1 1.1 1.1m2.5-2.2-1.1 1.1 1.1 1.1m2.5-2.2-1.1 1.1 1.1 1.1m2.5-2.2-1.1 1.1 1.1 1.1m2.5-2.2-1.1 1.1 1.1 1.1m2.6-2.2-1.1 1.1 1.1 1.1m2.5-2.2-1.1 1.1 1.1 1.1m2.5-2.2-1.1 1.1 1.1 1.1m2.5-2.2-1 1 1.1 1.1m2.4-2.1-1.1 1.1 1.1 1.1m2.6-2.2-1.1 1.1 1.1 1.1m-30.3 2.3-1.1 1.1 1.1 1.1m2.5-2.2-1.1 1.1 1.1 1.1m2.6-2.2-1.1 1.1 1.1 1.1m2.5-2.2-1.1 1.1 1.1 1.1m2.5-2.2-1.1 1.1 1.1 1.1m2.5-2.2-1.1 1.1 1.1 1.1m2.5-2.2-1.1 1.1 1.1 1.1m2.6-2.2-1.1 1.1 1.1 1.1m2.5-2.2-1.1 1.1 1.1 1.1m2.5-2.2-1.1 1.1 1.1 1.1m2.5-2.2-1.1 1.1 1.1 1.1m2.5-2.2-1.1 1.1 1.1 1.1m2.6-2.2-1.1 1.1 1.1 1.1" transform="translate(96 0) scale(-1 1)" style="fill: none; stroke: rgb(255, 255, 255); stroke-linecap: square; stroke-linejoin: round; stroke-opacity: 0.7; stroke-width: 0.9%;"></path></svg>
